<svg width="24" height="24" viewBox="0 0 24 24" fill="none" xmlns="http://www.w3.org/2000/svg">
<path fill-rule="evenodd" clip-rule="evenodd" d="M12 0C5.37778 0 0 5.37778 0 12C0 18.6222 5.37778 24 12 24C12.4711 24 12.9342 23.9662 13.392 23.9129L13.4062 23.9271L13.4222 23.9093C19.3742 23.2044 24 18.1404 24 12C24 5.86044 19.3742 0.8 13.424 0.0933333C13.4089 0.0808889 13.3956 0.0666668 13.3796 0.0542223V0.0488889L13.3529 0.0817778C12.9076 0.0311111 12.4569 0 12 0ZM11.5556 0.911111V5.33333H7.69778C8.51289 3.60622 9.63022 2.10844 10.9653 0.941333C11.16 0.923556 11.3582 0.919111 11.5556 0.911111ZM12.4444 0.911111C12.6427 0.92 12.8418 0.922667 13.0364 0.941333C14.3742 2.10844 15.4942 3.60356 16.3111 5.33333H12.4444V0.911111ZM9.40089 1.20622C8.27708 2.42042 7.36649 3.81576 6.70756 5.33333H3.12444C4.673 3.2692 6.89201 1.8097 9.40089 1.20622ZM14.5973 1.20622C17.1069 1.80926 19.3275 3.2688 20.8764 5.33333H17.2978C16.6371 3.81525 15.7235 2.41986 14.5973 1.20622ZM2.52089 6.22222H6.352C5.72735 7.93305 5.38743 9.73473 5.34578 11.5556H0.911111C0.98253 9.66945 1.53736 7.83318 2.52089 6.22222ZM7.32267 6.22222H11.5556V11.5556H6.23467C6.28345 9.72792 6.65167 7.92292 7.32267 6.22222ZM12.4444 6.22222H16.6844C17.3555 7.92289 17.7238 9.72791 17.7724 11.5556H12.4444V6.22222ZM17.6533 6.22222H21.4791C22.4626 7.83318 23.0166 9.66945 23.088 11.5556H18.6613C18.6188 9.73458 18.278 7.9329 17.6524 6.22222H17.6533ZM0.910222 12.4444H5.34489C5.38648 14.2653 5.7264 16.067 6.35111 17.7778H2.51911C1.53608 16.1667 0.982458 14.3304 0.911111 12.4444H0.910222ZM6.23378 12.4444H11.5556V17.7778H7.32267C6.65169 16.0771 6.28347 14.2721 6.23467 12.4444H6.23378ZM12.4436 12.4444H17.7493C17.6551 14.1182 17.1982 15.9582 16.4 17.7778H12.4444L12.4436 12.4444ZM18.6391 12.4444H23.088C23.0167 14.3304 22.463 16.1667 21.48 17.7778H17.3653C18.1147 15.9733 18.552 14.1476 18.6391 12.4444ZM3.12444 18.6667H6.70933C7.36828 20.1842 8.27887 21.5796 9.40267 22.7938C6.89269 22.1911 4.67169 20.7315 3.12267 18.6667H3.12444ZM7.69867 18.6667H11.5564V23.0889C11.36 23.08 11.1618 23.0764 10.968 23.0587C9.63111 21.8916 8.51467 20.3956 7.69867 18.6667ZM12.4453 18.6667H15.968C15.1751 20.2604 14.1694 21.7391 12.9787 23.0622C12.8027 23.0782 12.6231 23.0818 12.4453 23.0889V18.6667ZM16.968 18.6667H20.8773C19.2708 20.8138 16.9406 22.306 14.3182 22.8667C15.3664 21.5781 16.2555 20.168 16.9662 18.6667H16.968Z" fill="black"/>
</svg>
